<?xml version="1.0" standalone="no"?>
<!DOCTYPE svg PUBLIC "-//W3C//DTD SVG 20010904//EN"
 "http://www.w3.org/TR/2001/REC-SVG-20010904/DTD/svg10.dtd">
<svg version="1.0" xmlns="http://www.w3.org/2000/svg"
 width="500.000000pt" height="500.000000pt" viewBox="0 0 500.000000 500.000000"
 preserveAspectRatio="xMidYMid meet">

<g transform="translate(0.000000,500.000000) scale(0.100000,-0.100000)"
fill="#000000" stroke="none">
<path d="M2860 3161 c-37 -23 -318 -190 -878 -521 -35 -21 -60 -40 -55 -43 8
-5 683 387 936 543 27 17 53 30 59 30 5 0 66 -34 135 -75 68 -41 128 -75 134
-75 5 0 9 29 9 65 l0 65 105 0 105 0 0 -133 0 -132 136 -80 c75 -44 184 -108
242 -142 104 -61 129 -73 118 -54 -3 5 -112 71 -241 147 l-235 139 0 138 0
137 -125 0 -125 0 0 -60 c0 -33 -2 -60 -4 -60 -3 0 -59 32 -125 70 -66 39
-125 70 -133 69 -7 0 -33 -13 -58 -28z"/>
<path d="M1759 2598 c-7 -13 -27 -63 -45 -113 l-32 -90 -78 -6 -79 -5 79 -2
79 -2 -8 -32 c-4 -18 -12 -69 -19 -113 l-12 -79 -53 -31 c-50 -30 -58 -32
-130 -27 -42 2 -80 8 -84 12 -5 4 -4 18 3 30 13 25 5 39 -12 22 -15 -15 -83
-15 -107 0 -25 16 -46 5 -65 -33 -9 -18 -13 -30 -10 -26 4 4 14 -2 21 -13 18
-25 50 -12 59 25 5 20 12 25 40 25 30 0 34 -3 34 -25 0 -25 1 -25 85 -25 50 0
85 -4 85 -10 0 -5 -3 -10 -7 -10 -5 0 -29 -20 -55 -44 -51 -47 -62 -76 -28
-76 51 0 120 61 120 106 0 18 13 32 48 54 l47 29 6 -70 c7 -66 28 -119 49
-119 6 0 0 10 -11 21 -21 21 -21 28 -16 128 4 58 15 144 24 191 l18 85 165 5
165 6 -162 2 c-90 1 -163 4 -163 6 0 2 18 54 40 115 22 61 35 111 30 111 -5 0
-15 -10 -21 -22z m-508 -445 c-10 -4 -10 -7 -1 -13 16 -10 3 -50 -16 -50 -9 0
-14 11 -14 29 0 27 11 39 35 39 6 0 4 -2 -4 -5z m254 -143 c-29 -30 -82 -57
-92 -46 -8 8 23 42 72 78 34 25 41 27 43 13 2 -9 -8 -30 -23 -45z"/>
<path d="M1130 2533 c-49 -148 -140 -296 -244 -398 -39 -38 -57 -59 -40 -47
75 52 170 175 235 304 33 66 82 199 75 205 -2 2 -14 -26 -26 -64z"/>
<path d="M2212 2332 c-23 -147 -47 -307 -53 -357 -10 -91 -5 -180 11 -170 12
8 21 68 25 183 3 58 9 110 15 116 7 7 10 6 10 -2 0 -7 6 -12 13 -12 8 0 22 -9
32 -20 31 -34 107 -80 132 -80 34 0 93 33 162 90 33 27 62 50 64 50 3 0 7 -9
10 -20 6 -23 39 -27 56 -6 10 12 8 13 -9 9 -18 -5 -21 -2 -19 18 2 13 1 26 -3
29 -3 3 -43 -25 -89 -61 -153 -121 -175 -123 -287 -28 -71 59 -86 77 -58 66 8
-3 17 1 20 9 3 8 13 14 23 14 31 0 119 57 152 98 40 52 91 160 90 192 l-2 25
-4 -25 c-10 -50 -62 -149 -102 -193 -43 -46 -91 -75 -148 -88 -40 -9 -40 -10
-14 151 25 147 36 280 25 280 -5 0 -28 -120 -52 -268z"/>
<path d="M2477 2555 c12 -8 24 -25 26 -38 4 -22 4 -22 6 0 1 23 -23 53 -42 53
-6 0 -2 -7 10 -15z"/>
<path d="M2385 2508 l-40 -43 43 40 c39 36 47 45 39 45 -2 0 -21 -19 -42 -42z"/>
<path d="M825 2509 c-8 -25 -53 -281 -65 -379 -7 -52 -16 -100 -21 -106 -5 -6
-6 -13 -3 -17 3 -3 5 -75 5 -160 -1 -86 2 -158 7 -161 6 -3 13 50 18 127 l9
132 33 -52 c39 -61 69 -83 114 -83 27 0 43 11 90 61 53 55 125 149 115 149 -2
0 -30 -34 -62 -75 -125 -163 -172 -167 -264 -21 -36 58 -39 84 -10 120 17 22
18 25 3 19 -15 -6 -16 0 -10 58 4 35 18 138 32 227 14 90 23 166 20 169 -3 3
-8 0 -11 -8z"/>
<path d="M3307 2478 c-14 -18 -34 -51 -45 -73 -23 -47 -72 -197 -74 -231 -2
-18 -16 -32 -53 -53 -45 -25 -57 -27 -125 -23 -41 2 -79 8 -83 12 -5 4 -4 18
3 30 6 12 10 24 7 26 -2 2 -28 -9 -58 -26 -65 -36 -77 -37 -89 -7 -6 15 -9 17
-9 6 -1 -9 6 -22 14 -29 13 -11 22 -10 51 3 43 21 41 21 47 -3 5 -18 14 -20
86 -20 84 0 97 -7 59 -33 -43 -29 -88 -76 -88 -91 0 -35 82 -8 119 40 32 41
25 49 -9 11 -30 -35 -85 -65 -97 -53 -14 13 101 111 118 100 5 -3 9 0 9 5 0 9
71 61 84 61 2 0 7 -16 10 -35 4 -19 10 -35 14 -35 5 0 24 17 43 37 29 33 30
34 3 10 -37 -33 -44 -34 -44 -2 0 15 18 48 45 80 25 31 52 70 60 88 17 35 11
27 -50 -59 -32 -46 -41 -52 -43 -36 -4 24 50 186 83 253 38 74 74 89 76 31 0
-15 3 -21 6 -14 3 7 2 24 -1 37 -9 35 -40 32 -69 -7z"/>
<path d="M2320 2419 c-12 -23 -20 -43 -18 -45 3 -2 14 17 26 41 27 56 20 60
-8 4z"/>
<path d="M2065 2400 c-13 -6 -15 -9 -5 -9 8 0 22 4 30 9 18 12 2 12 -25 0z"/>
<path d="M1418 2368 c-16 -5 -28 -14 -28 -20 0 -6 6 -6 15 2 8 7 38 16 67 20
48 7 50 8 13 8 -22 0 -52 -4 -67 -10z"/>
<path d="M2276 2314 c-9 -26 -16 -52 -15 -58 0 -6 9 13 20 43 10 30 17 56 15
58 -2 2 -11 -17 -20 -43z"/>
<path d="M3326 2323 c-6 -14 -5 -15 5 -6 7 7 10 15 7 18 -3 3 -9 -2 -12 -12z"/>
<path d="M2739 2152 l-34 -37 35 30 c19 17 37 31 39 33 2 1 2 4 -1 7 -2 3 -20
-12 -39 -33z"/>
<path d="M3330 2144 c39 -46 52 -54 85 -54 21 0 39 8 51 23 19 22 19 22 -2 5
-32 -28 -78 -23 -106 10 -13 15 -30 32 -38 37 -8 4 -4 -5 10 -21z"/>
<path d="M1150 2060 c-12 -16 -19 -30 -16 -30 2 0 14 14 26 30 12 17 19 30 16
30 -2 0 -14 -13 -26 -30z"/>
<path d="M2211 2044 c0 -11 3 -14 6 -6 3 7 2 16 -1 19 -3 4 -6 -2 -5 -13z"/>
<path d="M2201 1994 c0 -11 3 -14 6 -6 3 7 2 16 -1 19 -3 4 -6 -2 -5 -13z"/>
<path d="M1660 1700 c0 -5 4 -10 9 -10 6 0 20 -18 32 -40 13 -22 26 -40 30
-40 4 0 9 23 11 50 2 30 -1 50 -7 50 -7 0 -9 -15 -7 -35 2 -19 2 -35 -1 -35
-3 0 -14 16 -26 35 -19 33 -41 46 -41 25z"/>
<path d="M1860 1697 c14 -8 27 -12 30 -10 7 6 -23 23 -40 23 -8 0 -4 -6 10
-13z"/>
<path d="M1987 1703 c-10 -10 -8 -25 2 -19 7 5 21 -15 21 -30 0 -9 -29 -3 -32
6 -2 6 -8 -3 -15 -20 -9 -24 -9 -30 3 -30 8 0 11 6 7 16 -4 12 0 15 18 12 13
-2 23 -9 22 -16 -2 -6 3 -12 11 -12 12 0 11 8 -3 45 -19 50 -25 58 -34 48z"/>
<path d="M2105 1660 c0 -28 5 -50 10 -50 7 0 10 16 8 38 -3 33 -2 35 9 18 44
-64 45 -65 49 -8 3 32 0 52 -6 52 -7 0 -10 -16 -8 -37 l4 -38 -23 37 c-13 21
-27 38 -33 38 -5 0 -10 -22 -10 -50z"/>
<path d="M2289 1664 c3 -44 2 -47 -19 -41 -16 4 -20 3 -12 -5 21 -21 40 0 44
46 2 27 -1 46 -7 46 -6 0 -9 -19 -6 -46z"/>
<path d="M2380 1672 c4 -21 10 -44 14 -50 9 -16 41 -15 54 1 14 17 20 87 7 87
-5 0 -10 -19 -10 -42 0 -37 -3 -43 -22 -46 -15 -2 -23 2 -24 12 -1 9 -2 22 -3
29 -1 6 2 20 6 30 7 13 4 17 -10 17 -17 0 -18 -5 -12 -38z"/>
<path d="M2535 1660 c0 -31 4 -50 12 -50 6 0 9 9 6 20 -3 11 0 20 5 20 6 0 16
-9 22 -20 6 -11 15 -20 21 -20 6 0 1 12 -10 27 l-21 26 22 24 c19 20 19 23 4
23 -9 0 -15 -4 -12 -9 3 -4 -4 -17 -16 -27 -21 -19 -21 -19 -16 9 3 16 1 27
-6 27 -7 0 -11 -20 -11 -50z"/>
<path d="M1814 1673 c-9 -36 7 -58 45 -59 24 -1 31 3 31 18 0 10 -4 18 -10 18
-5 0 -9 -6 -7 -12 1 -7 -8 -14 -20 -16 -24 -4 -38 25 -28 58 3 11 4 20 1 20
-3 0 -9 -12 -12 -27z"/>
</g>
</svg>
